<svg xmlns="http://www.w3.org/2000/svg" version="1.1" xmlns:xlink="http://www.w3.org/1999/xlink" xmlns:svgjs="http://svgjs.dev/svgjs" width="1000" height="1125" viewBox="0 0 1000 1125"><g transform="matrix(1,0,0,1,1.7053025658242404e-13,0)"><svg viewBox="0 0 320 360" data-background-color="#f9e17e" preserveAspectRatio="xMidYMid meet" height="1125" width="1000" xmlns="http://www.w3.org/2000/svg" xmlns:xlink="http://www.w3.org/1999/xlink"><g id="tight-bounds" transform="matrix(1,0,0,1,0,0)"><svg viewBox="0 0 320 360" height="360" width="320"><g><svg></svg></g><g><svg viewBox="0 0 320 360" height="360" width="320"><g><path xmlns="http://www.w3.org/2000/svg" d="M20.961 227.22l3.726 4.658-1.863-6.056c-0.466-2.795-3.726 0.466-1.863 1.398M25.153 224.425c1.397 2.329 2.795 4.658 2.795 6.987 0 3.261 2.795 4.658 5.123 5.589-3.261-3.726-5.124-13.974-7.918-12.576M204.017 26.929c7.918 0 15.371-0.932 23.756 0.931 20.495 5.124 37.729 15.371 49.374 29.811l32.606 52.169c1.397 13.042 4.192 27.482 3.726 43.319 3.261 0 2.795-4.658 6.521-5.59-3.726 9.316-5.59 20.961-6.521 34.469-2.329-7.453 0-18.632 0.466-24.687-3.261 5.124-5.124 1.397-5.124-0.932 0.466-3.726-1.397-3.261-2.795-4.658-5.124-4.658-8.384-9.782-12.11-17.7 2.329-6.055 2.795-14.905-4.658-19.563-2.329-1.397-5.124-3.726-6.521-7.453-1.863-5.124-5.124-11.179-4.193-19.097 0.466-2.329-6.987 5.124-11.179 1.863-18.166-12.576-36.332-27.016-58.224-39.127-11.645 0-20.029-4.192-24.221-9.316-3.726-4.658-0.932-10.713 4.658-11.179 3.261 0 6.987-0.932 9.782 0.932 0.466-1.863 2.329-4.192 4.657-4.192M157.904 16.215l0.932 0.466c4.658 0.932 6.987 7.453 12.11 5.124 0 3.261 0.466 6.521-0.466 8.85-1.397 3.726-5.59 3.726-8.85 3.726-31.208-1.863-49.374 11.179-68.471 22.358-5.124 3.261-10.713 5.59-14.906 9.782-20.029 18.632-41.921 35.866-47.045 70.335l-4.192 38.195c-0.466 4.192-5.124 8.384-4.192 13.508l3.26 22.824c-3.261-3.261-5.124 0.932-4.192 2.795 0.466 1.397 2.329 6.055 5.124 1.863 3.726 6.987 7.453 20.495 12.576 26.55 15.837 18.632 36.332 35.4 53.101 52.169 4.192-0.932 7.453-0.932 8.384-3.727 1.397 2.795-1.397 5.59-3.726 6.056 7.453 4.658 15.837 8.85 27.016 9.781 14.44 0.932 27.948 3.261 40.524 6.522 6.521-1.863 13.042-2.795 20.029-3.261 2.329 0 3.726-3.726 6.521-4.658l0.466-4.658c2.795 4.192 2.329-1.397 0.466-4.192 3.261 2.795 4.192 5.124 5.589 6.987 0-1.397 3.726-6.521 3.727-0.466l0.931-6.055c1.397-0.932 1.863 5.124 3.261 0.931 1.397-4.192 4.192-0.932 6.987-2.329-0.932 1.863-0.466 5.59 2.794 3.261l3.727-3.261c2.329 5.59 6.055 3.261 7.918 2.329 20.495-13.042 40.99-28.413 60.553-43.784l-0.466 6.055 2.329-7.453c2.329 2.329 4.192 0.466 5.124-0.931 2.795-4.658 6.521-9.316 12.577-13.508-7.453 20.029-16.303 35.866-27.482 48.908l-4.658 5.59c0 3.261-0.932 7.453-4.658 7.918-1.863 0.466-5.59-0.932-8.384 1.863-1.397 1.863 3.261 5.59-0.466 2.795-3.261-2.329-6.521 0-10.248 0.932-2.795 0.932 1.863 3.726 2.795 5.589 0.932 1.863 1.863 3.726 1.398 6.056l-5.124-5.59c-6.055 3.261-9.782 9.316-14.906 13.974-2.329 1.863-1.397 5.124-1.397 7.918-3.261 0-6.987-0.932-8.85 0.932-1.397 1.863-0.932 4.658-0.932 7.453-4.658-0.466-5.124-7.453-9.315-6.056-4.192 0.932-8.85 1.397-12.577 3.727 2.795 5.59-4.658 2.329-3.726 3.26-6.987-4.192-13.042-7.453-20.495-4.658-15.837-5.124-35.4-2.795-49.84-0.931 0-2.329 0.466-4.658-0.466-5.124-0.932 2.329-3.726 1.397-3.26 1.397-8.85-6.055-17.7-9.782-27.016-14.905-8.384 0.932-16.303-3.261-18.632-5.59-6.521-6.055-13.974-2.795-20.029-4.192-13.042-3.261-17.7-16.769-19.098-26.084-0.932-4.658-4.658-6.521-6.055-6.056-6.055-19.563-15.371-37.263-22.824-55.429-1.863-4.658-1.397-9.316-1.397-14.44 2.329 0.932 4.658 0.466 4.192-2.794-2.329-15.371-7.918-27.016-13.974-38.195 3.261-15.837 3.726-34.469 11.179-48.443 6.521-12.576 18.632-19.098 27.016-29.811 2.795-3.726 2.795-8.85 5.59-12.11 9.316-9.316 18.632-19.098 28.879-27.482 4.658-3.726 10.247 0 17.234-1.397 2.329-8.384 11.645-15.837 20.495-13.508 3.726 0.932 11.179-8.85 13.508-9.782 3.726-1.397 1.863 3.726 1.863 6.987 8.85-6.987 20.961-10.713 32.14-14.906" fill="#f5ba41" fill-rule="nonzero" stroke="none" stroke-width="1" stroke-linecap="butt" stroke-linejoin="miter" stroke-miterlimit="10" stroke-dasharray="" stroke-dashoffset="0" font-family="none" font-weight="none" font-size="none" text-anchor="none" style="mix-blend-mode: normal" data-fill-palette-color="tertiary"></path></g><g transform="matrix(1,0,0,1,87.53925319051274,90)"><svg viewBox="0 0 144.92149361897452 180" height="180" width="144.92149361897452"><g><svg viewBox="0 0 144.92149361897452 180" height="180" width="144.92149361897452"><g><svg viewBox="0 0 144.92149361897452 180" height="180" width="144.92149361897452"><g><svg viewBox="0 0 144.92149361897452 180" height="180" width="144.92149361897452"><g><svg viewBox="0 0 144.92149361897452 180" height="180" width="144.92149361897452"><g><svg viewBox="0 0 144.92149361897452 180" height="180" width="144.92149361897452"><g transform="matrix(1,0,0,1,0,0)"><svg width="144.92149361897452" viewBox="-4 -52.00862121582031 49.650001525878906 61.678619384765625" height="180" data-palette-color="#f5ba41"><path d="M45.65-35.21L45.65-34.08Q45.65-31.3 44.92-28.96 44.19-26.61 43.04-24.46 41.89-22.31 40.58-20.21 39.26-18.12 38.09-15.77L38.09-15.77Q37.79-15.77 37.67-15.63 37.55-15.48 37.48-15.26 37.4-15.04 37.28-14.87 37.16-14.7 36.87-14.7L36.87-14.7Q36.43-13.62 35.74-12.67 35.06-11.72 34.3-10.82 33.54-9.91 32.84-8.98 32.13-8.06 31.59-6.98L31.59-6.98 31.1-6.98Q28.47-3.17 25.17-0.15 21.88 2.88 17.97 5.27L17.97 5.27Q17.87 5.57 17.68 5.76 17.48 5.96 17.58 6.3L17.58 6.3Q17.04 6.59 16.67 7.06 16.31 7.52 15.97 8.01 15.63 8.5 15.26 8.96 14.89 9.42 14.31 9.67L14.31 9.67Q13.57 9.52 12.92 9.42 12.26 9.33 11.57 9.28L11.57 9.28Q11.28 9.28 10.99 9.3 10.69 9.33 10.45 9.28L10.45 9.28Q9.91 9.18 9.55 8.86 9.18 8.54 8.5 8.54L8.5 8.54Q8.15 8.54 7.96 8.59L7.96 8.59Q7.57 7.91 7.06 7.2 6.54 6.49 6.54 5.66L6.54 5.66Q6.54 5.03 6.71 4.49 6.88 3.96 6.88 3.37L6.88 3.37Q6.88 2.2 6.47 1.07 6.05-0.05 6.05-1.22L6.05-1.22Q6.05-1.61 6.15-1.98 6.25-2.34 6.25-2.73L6.25-2.73Q6.25-3.17 5.86-3.52L5.86-3.52Q5.91-3.76 6.05-4 6.2-4.25 6.2-4.54L6.2-4.54Q6.3-4.93 6.25-5.4 6.2-5.86 6.2-6.25L6.2-6.25Q6.2-7.28 6.3-8.3 6.4-9.33 6.74-10.3L6.74-10.3Q6.69-10.6 6.59-10.84L6.59-10.84 6.4-11.33Q6.74-12.35 6.84-13.62 6.93-14.89 6.93-16.16L6.93-16.16 6.93-18.75Q6.93-20.02 7.08-21.14L7.08-21.14Q7.18-21.63 7.3-22.09 7.42-22.56 7.42-23L7.42-23Q7.42-23.39 7.28-23.71 7.13-24.02 6.88-24.32L6.88-24.32Q7.23-24.41 7.28-24.73 7.32-25.05 7.32-25.29L7.32-25.29Q7.32-25.98 7.08-26.81L7.08-26.81Q7.28-27.64 7.32-28.49 7.37-29.35 7.37-30.18L7.37-30.18Q7.37-33.11 7.01-35.94 6.64-38.77 6.54-41.65L6.54-41.65 6.4-41.65Q6.05-41.65 5.86-41.5 5.66-41.36 5.47-41.19 5.27-41.02 5.03-40.89 4.79-40.77 4.44-40.82L4.44-40.82Q3.86-40.14 3.1-39.65 2.34-39.16 1.51-38.77 0.68-38.38-0.2-38.06-1.07-37.74-1.86-37.45L-1.86-37.45Q-2.54-37.7-3.03-38.26-3.52-38.82-3.96-39.4L-3.96-39.4Q-4-39.6-4-39.79L-4-39.79-4-40.19Q-4-41.55-3.37-42.26-2.73-42.97-2-43.95L-2-43.95-1.76-43.95Q-1.51-43.95-1.34-43.85-1.17-43.75-0.93-43.75L-0.93-43.75-0.78-43.75Q0.63-44.92 2.22-45.63 3.81-46.34 5.52-46.73L5.52-46.73Q6.25-47.46 7.01-47.85 7.76-48.24 8.79-48.24L8.79-48.24Q9.03-48.24 9.35-48.22 9.67-48.19 9.91-48.14L9.91-48.14Q11.91-49.07 13.7-49.73 15.48-50.39 17.82-50.39L17.82-50.39Q18.12-50.39 18.24-50.54 18.36-50.68 18.46-50.85 18.55-51.03 18.65-51.17 18.75-51.32 18.99-51.32L18.99-51.32Q18.99-51.22 19.04-51.03 19.09-50.83 19.29-50.83L19.29-50.83Q19.48-50.83 19.65-50.95 19.82-51.07 20.07-51.07L20.07-51.07Q20.31-51.07 20.41-50.73L20.41-50.73Q20.95-51.07 21.44-51.37 21.92-51.66 22.51-51.81L22.51-51.81Q23.24-51.66 24-51.56 24.76-51.46 25.54-51.46L25.54-51.46Q26.12-51.46 26.71-51.54 27.29-51.61 27.73-52L27.73-52Q27.93-52.05 27.93-51.81L27.93-51.81Q28.37-51.42 28.86-51.29 29.35-51.17 29.88-51.15 30.42-51.12 30.96-51.07 31.49-51.03 31.93-50.73L31.93-50.73Q32.32-50.63 32.57-50.42 32.81-50.2 33.2-50.05L33.2-50.05Q33.5-49.95 34.01-49.9 34.52-49.85 34.77-49.71L34.77-49.71Q35.01-49.61 35.03-49.39 35.06-49.17 35.3-49.02L35.3-49.02Q35.74-48.68 36.47-48.61 37.21-48.54 37.74-48.14L37.74-48.14Q37.94-47.07 38.82-46.73 39.7-46.39 40.53-46.04L40.53-46.04Q40.82-45.75 40.72-45.36L40.72-45.36Q41.31-44.92 41.77-44.38 42.24-43.85 42.65-43.24 43.07-42.63 43.46-42.04 43.85-41.46 44.38-40.97L44.38-40.97Q44.34-40.53 44.51-40.28 44.68-40.04 44.58-39.55L44.58-39.55Q45.17-39.01 45.65-38.13L45.65-38.13Q45.36-37.7 45.36-37.16L45.36-37.16Q45.36-36.67 45.51-36.18 45.65-35.69 45.65-35.21L45.65-35.21ZM41.11-34.33L41.11-35.16Q41.11-36.57 40.58-37.92 40.04-39.26 39.65-40.58L39.65-40.58Q39.01-40.58 38.84-41.04 38.67-41.5 38.23-41.85L38.23-41.85Q37.3-42.04 37.06-43.26L37.06-43.26Q36.08-43.65 35.06-44.14 34.03-44.63 33.35-45.51L33.35-45.51Q31.59-46.04 29.81-46.61 28.03-47.17 26.17-47.17L26.17-47.17Q25.83-47.17 25.56-47.14 25.29-47.12 25.05-47.12L25.05-47.12Q24.66-47.12 24.22-46.97 23.78-46.83 23.39-46.83L23.39-46.83Q22.95-46.83 22.51-47.12L22.51-47.12Q21.53-46.58 20.39-46.29 19.24-46 18.07-45.78 16.89-45.56 15.77-45.24 14.65-44.92 13.77-44.29L13.77-44.29Q13.48-44.38 13.21-44.43 12.94-44.48 12.7-44.48L12.7-44.48Q12.26-44.48 12.01-44.29L12.01-44.29Q11.87-44.19 11.84-44.04 11.82-43.9 11.79-43.73 11.77-43.55 11.67-43.46 11.57-43.36 11.28-43.41L11.28-43.41Q11.28-43.16 11.25-42.97 11.23-42.77 11.23-42.53L11.23-42.53Q11.23-41.26 11.5-40.01 11.77-38.77 11.77-37.5L11.77-37.5Q11.77-37.06 11.72-36.6 11.67-36.13 11.52-35.69L11.52-35.69Q11.77-35.11 11.79-34.42 11.82-33.74 11.82-33.06 11.82-32.37 11.87-31.71 11.91-31.05 12.21-30.47L12.21-30.47Q12.06-29.74 12.01-29 11.96-28.27 11.96-27.54L11.96-27.54Q11.96-25.83 12.13-24.17 12.3-22.51 12.3-20.8L12.3-20.8Q12.3-20.36 12.28-19.87 12.26-19.38 12.21-18.9L12.21-18.9Q12.11-18.26 11.87-17.68 11.62-17.09 11.62-16.41L11.62-16.41Q11.62-15.97 11.67-15.5 11.72-15.04 11.72-14.55L11.72-14.55Q11.72-14.36 11.69-14.18 11.67-14.01 11.67-13.82L11.67-13.82Q11.43-12.11 11.28-10.35 11.13-8.59 11.13-6.88L11.13-6.88Q11.13-5.27 11.23-3.69 11.33-2.1 11.52-0.49L11.52-0.49Q11.33-0.15 11.33 0.29L11.33 0.29Q11.33 0.98 11.67 1.68 12.01 2.39 12.7 2.64L12.7 2.64Q14.26 2.05 15.6 1.1 16.94 0.15 18.31-0.83L18.31-0.83Q18.65-1.07 19.34-1.49 20.02-1.9 20.26-2.1L20.26-2.1Q20.51-2.29 20.68-2.51 20.85-2.73 21.09-2.98L21.09-2.98 23.24-5.27Q25.1-7.18 26.93-9.13 28.76-11.08 30.32-13.28L30.32-13.28Q30.76-13.96 31.2-14.62 31.64-15.28 32.03-16.02L32.03-16.02Q32.23-16.26 32.32-16.58 32.42-16.89 32.67-17.14L32.67-17.14Q32.81-17.33 33.03-17.53 33.25-17.72 33.4-17.92L33.4-17.92Q33.79-18.36 34.16-18.82 34.52-19.29 34.91-19.82L34.91-19.82Q35.99-21.39 36.91-22.97 37.84-24.56 38.96-26.12L38.96-26.12Q39.06-27.1 39.36-27.95 39.65-28.81 39.94-29.61 40.23-30.42 40.43-31.3 40.63-32.18 40.53-33.25L40.53-33.25Q40.77-33.59 40.94-33.74 41.11-33.89 41.11-34.33L41.11-34.33Z" opacity="1" transform="matrix(1,0,0,1,0,0)" fill="#f5ba41" class="undefined-text-0" data-fill-palette-color="primary" id="text-0"></path></svg></g></svg></g></svg></g></svg></g></svg></g></svg></g></svg></g></svg></g><defs></defs></svg><rect width="320" height="360" fill="none" stroke="none" visibility="hidden"></rect></g></svg></g></svg>